<svg xmlns="http://www.w3.org/2000/svg" xmlns:xlink="http://www.w3.org/1999/xlink" version="1.1" width="256" height="256" viewBox="0 0 256 256" xml:space="preserve">

<defs>
</defs>
<g style="stroke: none; stroke-width: 0; stroke-dasharray: none; stroke-linecap: butt; stroke-linejoin: miter; stroke-miterlimit: 10; fill: none; fill-rule: nonzero; opacity: 1;" transform="translate(1.4065934065934016 1.4065934065934016) scale(2.81 2.81)" >
	<path d="M 28.736 24.121 v -3.782 c 0 -3.444 -2.792 -6.236 -6.236 -6.236 s -6.236 2.792 -6.236 6.236 v 3.782 c 0 3.444 2.792 6.236 6.236 6.236 S 28.736 27.565 28.736 24.121 z" style="stroke: none; stroke-width: 1; stroke-dasharray: none; stroke-linecap: butt; stroke-linejoin: miter; stroke-miterlimit: 10; fill: rgb(0,0,0); fill-rule: nonzero; opacity: 1;" transform=" matrix(1 0 0 1 0 0) " stroke-linecap="round" />
	<path d="M 51.236 24.121 v -3.782 c 0 -3.444 -2.792 -6.236 -6.236 -6.236 s -6.236 2.792 -6.236 6.236 v 3.782 c 0 3.444 2.792 6.236 6.236 6.236 S 51.236 27.565 51.236 24.121 z" style="stroke: none; stroke-width: 1; stroke-dasharray: none; stroke-linecap: butt; stroke-linejoin: miter; stroke-miterlimit: 10; fill: rgb(0,0,0); fill-rule: nonzero; opacity: 1;" transform=" matrix(1 0 0 1 0 0) " stroke-linecap="round" />
	<path d="M 73.736 24.121 v -3.782 c 0 -3.444 -2.792 -6.236 -6.236 -6.236 s -6.236 2.792 -6.236 6.236 v 3.782 c 0 3.444 2.792 6.236 6.236 6.236 S 73.736 27.565 73.736 24.121 z" style="stroke: none; stroke-width: 1; stroke-dasharray: none; stroke-linecap: butt; stroke-linejoin: miter; stroke-miterlimit: 10; fill: rgb(0,0,0); fill-rule: nonzero; opacity: 1;" transform=" matrix(1 0 0 1 0 0) " stroke-linecap="round" />
	<path d="M 39.986 50.519 v -3.782 c 0 -3.444 -2.792 -6.236 -6.236 -6.236 s -6.236 2.792 -6.236 6.236 v 3.782 c 0 3.444 2.792 6.236 6.236 6.236 S 39.986 53.964 39.986 50.519 z" style="stroke: none; stroke-width: 1; stroke-dasharray: none; stroke-linecap: butt; stroke-linejoin: miter; stroke-miterlimit: 10; fill: rgb(0,0,0); fill-rule: nonzero; opacity: 1;" transform=" matrix(1 0 0 1 0 0) " stroke-linecap="round" />
	<path d="M 62.486 50.519 v -3.782 c 0 -3.444 -2.792 -6.236 -6.236 -6.236 s -6.236 2.792 -6.236 6.236 v 3.782 c 0 3.444 2.792 6.236 6.236 6.236 S 62.486 53.964 62.486 50.519 z" style="stroke: none; stroke-width: 1; stroke-dasharray: none; stroke-linecap: butt; stroke-linejoin: miter; stroke-miterlimit: 10; fill: rgb(0,0,0); fill-rule: nonzero; opacity: 1;" transform=" matrix(1 0 0 1 0 0) " stroke-linecap="round" />
	<path d="M 84.986 50.519 v -3.782 c 0 -3.444 -2.792 -6.236 -6.236 -6.236 s -6.236 2.792 -6.236 6.236 v 3.782 c 0 3.444 2.792 6.236 6.236 6.236 S 84.986 53.964 84.986 50.519 z" style="stroke: none; stroke-width: 1; stroke-dasharray: none; stroke-linecap: butt; stroke-linejoin: miter; stroke-miterlimit: 10; fill: rgb(0,0,0); fill-rule: nonzero; opacity: 1;" transform=" matrix(1 0 0 1 0 0) " stroke-linecap="round" />
	<path d="M 17.486 50.519 v -3.782 c 0 -3.444 -2.792 -6.236 -6.236 -6.236 s -6.236 2.792 -6.236 6.236 v 3.782 c 0 3.444 2.792 6.236 6.236 6.236 S 17.486 53.964 17.486 50.519 z" style="stroke: none; stroke-width: 1; stroke-dasharray: none; stroke-linecap: butt; stroke-linejoin: miter; stroke-miterlimit: 10; fill: rgb(0,0,0); fill-rule: nonzero; opacity: 1;" transform=" matrix(1 0 0 1 0 0) " stroke-linecap="round" />
	<path d="M 81.807 56.756 H 78.75 h -3.057 c -4.525 0 -8.193 3.668 -8.193 8.193 c 0 -4.525 -3.668 -8.193 -8.193 -8.193 H 56.25 h -3.057 c -4.525 0 -8.193 3.668 -8.193 8.193 c 0 -4.525 -3.668 -8.193 -8.193 -8.193 H 33.75 h -3.057 c -4.525 0 -8.193 3.668 -8.193 8.193 c 0 -4.525 -3.668 -8.193 -8.193 -8.193 H 11.25 H 8.193 C 3.668 56.756 0 60.424 0 64.949 v 10.949 h 22.5 H 45 h 22.5 H 90 V 64.949 C 90 60.424 86.332 56.756 81.807 56.756 z" style="stroke: none; stroke-width: 1; stroke-dasharray: none; stroke-linecap: butt; stroke-linejoin: miter; stroke-miterlimit: 10; fill: rgb(0,0,0); fill-rule: nonzero; opacity: 1;" transform=" matrix(1 0 0 1 0 0) " stroke-linecap="round" />
	<path d="M 41.986 46.737 v 3.782 c 0 1.827 -0.606 3.512 -1.616 4.88 c 1.861 0.696 3.466 1.921 4.63 3.492 c 1.164 -1.57 2.769 -2.795 4.63 -3.491 c -1.011 -1.368 -1.616 -3.052 -1.616 -4.88 v -3.782 c 0 -4.541 3.693 -8.235 8.234 -8.236 c -0.027 -4.502 -3.682 -8.144 -8.19 -8.144 H 45 h -3.057 c -4.508 0 -8.164 3.642 -8.19 8.144 C 38.293 38.502 41.986 42.197 41.986 46.737 z" style="stroke: none; stroke-width: 1; stroke-dasharray: none; stroke-linecap: butt; stroke-linejoin: miter; stroke-miterlimit: 10; fill: rgb(0,0,0); fill-rule: nonzero; opacity: 1;" transform=" matrix(1 0 0 1 0 0) " stroke-linecap="round" />
	<path d="M 19.486 46.737 v 3.782 c 0 1.828 -0.605 3.512 -1.616 4.88 c 1.861 0.696 3.466 1.921 4.63 3.492 c 1.164 -1.57 2.769 -2.795 4.63 -3.492 c -1.011 -1.368 -1.616 -3.052 -1.616 -4.88 v -3.782 c 0 -4.541 3.694 -8.235 8.234 -8.236 c -0.027 -4.502 -3.682 -8.144 -8.19 -8.144 H 22.5 h -3.057 c -4.508 0 -8.164 3.642 -8.19 8.144 C 15.793 38.502 19.486 42.197 19.486 46.737 z" style="stroke: none; stroke-width: 1; stroke-dasharray: none; stroke-linecap: butt; stroke-linejoin: miter; stroke-miterlimit: 10; fill: rgb(0,0,0); fill-rule: nonzero; opacity: 1;" transform=" matrix(1 0 0 1 0 0) " stroke-linecap="round" />
	<path d="M 64.486 46.737 v 3.782 c 0 1.828 -0.605 3.512 -1.616 4.88 c 1.861 0.696 3.466 1.921 4.63 3.491 c 1.164 -1.57 2.769 -2.795 4.63 -3.491 c -1.011 -1.368 -1.616 -3.052 -1.616 -4.88 v -3.782 c 0 -4.541 3.693 -8.235 8.234 -8.236 c -0.027 -4.502 -3.682 -8.144 -8.19 -8.144 H 67.5 h -3.057 c -4.508 0 -8.164 3.642 -8.19 8.144 C 60.793 38.502 64.486 42.197 64.486 46.737 z" style="stroke: none; stroke-width: 1; stroke-dasharray: none; stroke-linecap: butt; stroke-linejoin: miter; stroke-miterlimit: 10; fill: rgb(0,0,0); fill-rule: nonzero; opacity: 1;" transform=" matrix(1 0 0 1 0 0) " stroke-linecap="round" />
</g>
</svg>