<svg width="403" height="80" viewBox="0 0 403 80" fill="none" xmlns="http://www.w3.org/2000/svg">
<g clip-path="url(#clip0_202_893)">
<path d="M46.164 25.1065L70.5961 67.4271H21.7451L46.1771 25.1065M46.1771 0L0 79.9869H92.3412L46.164 0H46.1771Z" fill="white"/>
<path d="M177.08 12.5598C192.206 12.5598 204.514 24.8705 204.514 40C204.514 55.1295 192.206 67.4402 177.08 67.4402H149.646V12.5598H177.08ZM177.08 0H137.09V80H177.08C199.166 80 217.071 62.0911 217.071 40C217.071 17.9089 199.166 0 177.08 0Z" fill="white"/>
<path d="M269.814 12.5598C284.94 12.5598 297.248 24.8705 297.248 40C297.248 55.1295 284.94 67.4402 269.814 67.4402C254.689 67.4402 242.381 55.1295 242.381 40C242.381 24.8705 254.689 12.5598 269.814 12.5598ZM269.814 0C247.729 0 229.824 17.9089 229.824 40C229.824 62.0911 247.729 80 269.814 80C291.9 80 309.805 62.0911 309.805 40C309.805 17.9089 291.9 0 269.814 0Z" fill="white"/>
<path d="M362.549 12.5598C377.675 12.5598 389.982 24.8705 389.982 40C389.982 55.1295 377.675 67.4402 362.549 67.4402C347.423 67.4402 335.115 55.1295 335.115 40C335.115 24.8705 347.423 12.5598 362.549 12.5598ZM362.549 0C340.463 0 322.558 17.9089 322.558 40C322.558 62.0911 340.463 80 362.549 80C384.635 80 402.539 62.0911 402.539 40C402.539 17.9089 384.635 0 362.549 0Z" fill="white"/>
<path d="M115.974 0H103.417V80H115.974V0Z" fill="white"/>
</g>
<defs>
<clipPath id="clip0_202_893">
<rect width="403" height="80" fill="white"/>
</clipPath>
</defs>
</svg>
