<svg width="80" height="80" viewBox="0 0 80 80" fill="none" xmlns="http://www.w3.org/2000/svg">
<path d="M40 5C20.6579 5 5 20.6579 5 40C5 59.3421 20.6579 75 40 75C59.3421 75 75 59.3421 75 40C75 20.6579 59.3421 5 40 5ZM40 8.22368C57.5 8.22368 71.7763 22.5 71.7763 40C71.7763 57.5 57.5 71.7763 40 71.7763C22.5 71.7763 8.22368 57.5 8.22368 40C8.22368 22.5 22.5 8.22368 40 8.22368ZM33.0921 24.1118C32.1711 24.1118 31.4803 24.8026 31.4803 25.7237V54.2763C31.4803 55.1974 32.1711 55.8882 33.0921 55.8882C33.3224 55.8882 33.5526 55.8882 33.7829 55.6579L56.1184 41.3816C56.8092 40.9211 57.0395 40 56.8092 39.0789C56.5789 38.8487 56.5789 38.6184 56.1184 38.3882L33.5526 24.1118C33.3224 24.1118 33.3224 24.1118 33.0921 24.1118ZM34.4737 28.7171L52.2039 40L34.4737 51.2829V28.7171Z" fill="#3B4E52"/>
</svg>
