<svg width="80" height="80" viewBox="0 0 80 80" fill="none" xmlns="http://www.w3.org/2000/svg">
<path fill-rule="evenodd" clip-rule="evenodd" d="M42.6978 11.9966H42.9197C43.5374 11.9898 44.0595 11.5324 44.1448 10.9215L44.9512 6.55082C47.3214 7.45417 49.4047 8.99981 50.9572 11.0273C52.7289 13.3334 53.7192 16.1436 53.7894 19.0476H26.3334C26.4107 16.1066 27.4296 13.2662 29.2466 10.9442C30.7894 8.9716 32.8368 7.46444 35.162 6.57717L35.9435 10.959C36.0664 11.6485 36.7285 12.1058 37.4179 11.9829C38.1074 11.8601 38.5647 11.198 38.4418 10.5085V10.512L37.1176 3.33455C37.0801 3.12636 37.1347 2.91134 37.2678 2.74752C37.4077 2.59052 37.6057 2.50179 37.8173 2.49837H42.3087C42.5306 2.5052 42.7319 2.61783 42.8582 2.7953C42.9947 2.95571 43.0493 3.16731 43.0084 3.37209V3.36868L42.7902 4.55142C42.784 4.56986 42.7782 4.58854 42.7729 4.60744C42.7509 4.69096 42.738 4.77481 42.7336 4.85793L41.6842 10.5461C41.6261 10.8737 41.7012 11.2082 41.8924 11.4812C42.0801 11.7508 42.3702 11.9386 42.6978 11.9966ZM34.7183 4.08903L34.6568 3.74405C34.5066 2.81573 34.766 1.86355 35.3735 1.14335C35.981 0.42321 36.8753 0.00681496 37.8172 0H42.3086C43.254 0.00341225 44.1482 0.419794 44.7557 1.13994C45.3667 1.86007 45.626 2.81573 45.469 3.74405L45.4062 4.08492C48.3845 5.12419 51.0007 7.00835 52.9332 9.52212C55.0971 12.3413 56.2745 15.7917 56.2881 19.3479V19.8792L58.2607 21.7438C59.1652 22.5288 59.4825 23.8018 59.0491 24.9178C58.6157 26.0373 57.527 26.7643 56.3256 26.7369H55.9657C55.6953 35.6106 48.7004 45.9825 40.0625 45.9825C31.4058 45.9825 24.4125 35.5654 24.1684 26.7369H23.7625C22.5611 26.7642 21.4724 26.0373 21.039 24.9178C20.6055 23.8018 20.9229 22.5288 21.8274 21.7438L23.8843 19.7994C23.8864 19.669 23.8911 19.5387 23.8984 19.4088C23.895 15.8525 25.0588 12.3918 27.2124 9.56199C29.1323 7.03963 31.7439 5.14119 34.7183 4.08903ZM54.4805 21.6545H25.6465L23.5263 23.6413H23.5228C23.4102 23.7335 23.3727 23.8939 23.4375 24.027C23.4819 24.1635 23.615 24.2523 23.7617 24.2386H25.1678C25.2464 24.2231 25.3277 24.2149 25.4109 24.2149C25.4924 24.2149 25.5731 24.223 25.6519 24.2386H56.3619C56.5086 24.2523 56.6417 24.1635 56.6861 24.027C56.7509 23.8939 56.7134 23.7335 56.6008 23.6413L54.4805 21.6545ZM40.063 43.389C45.9791 43.389 53.1746 35.7621 53.4695 26.7369H26.6684C26.9732 34.2301 33.1514 43.389 40.063 43.389ZM8.29863 73.8051C18.4206 77.7709 29.1892 79.8323 40.0626 79.8835H40.0643C50.9377 79.8323 61.7053 77.771 71.8282 73.8051C72.3095 73.6208 72.6269 73.1566 72.6269 72.6447C72.6269 58.9894 58.0262 47.7577 40.0634 47.7577C22.1042 47.7577 7.5 58.9142 7.5 72.6447C7.5 73.1566 7.8174 73.6208 8.29863 73.8051ZM70.1176 71.7812C50.7726 79.2316 29.3535 79.2316 10.0085 71.7812C10.6192 59.8357 23.8386 50.2519 40.0635 50.2519C56.2884 50.2519 69.5067 59.8357 70.1176 71.7812Z" fill="#3B4E52"/>
</svg>
