<svg width="80" height="80" viewBox="0 0 80 80" fill="none" xmlns="http://www.w3.org/2000/svg">
<path d="M12.6504 69.4925C13.2143 69.7744 13.7782 69.7744 14.0602 69.7744C15.188 69.7744 16.0338 69.4925 16.8797 68.6466L25.9023 59.6241H48.1767C50.4323 59.6241 52.406 57.6504 52.406 55.3947V42.4248H54.0977L63.1203 51.4474C64.2481 52.5752 66.2218 52.8571 67.3496 52.2932C68.7594 51.7293 69.6053 50.3196 69.6053 48.6278V42.4248H73.2707C75.5263 42.4248 77.5 40.4511 77.5 38.1955V14.2293C77.5 11.9737 75.5263 10 73.2707 10H31.8233C29.5677 10 27.594 11.9737 27.594 14.2293V27.1992H6.72932C4.47368 27.1992 2.5 29.1729 2.5 31.4286V55.6767C2.5 57.9323 4.47368 59.906 6.72932 59.906H10.3947V66.109C10.3947 67.5188 11.2406 68.9286 12.6504 69.4925ZM30.1316 14.2293C30.1316 13.3835 30.9774 12.5376 31.8233 12.5376H73.2707C74.1165 12.5376 74.9624 13.3835 74.9624 14.2293V38.4774C74.9624 39.3233 74.1165 40.1692 73.2707 40.1692H68.1955C67.3496 40.1692 67.0677 40.7331 67.0677 41.297V48.9098C67.0677 49.7556 66.5038 50.0376 66.2218 50.0376C65.9399 50.0376 65.9399 50.0376 65.9399 50.0376C65.6579 50.0376 65.6579 50.0376 65.3759 50.0376H65.094L55.5075 40.4511C55.2256 40.1692 54.9436 40.1692 54.6617 40.1692H52.406V31.4286C52.406 29.1729 50.4323 27.1992 48.1767 27.1992H30.4135V14.2293H30.1316ZM6.72932 57.0865C5.88346 57.0865 5.03759 56.2406 5.03759 55.3947V31.1466C5.03759 30.3008 5.88346 29.4549 6.72932 29.4549H48.1767C49.0226 29.4549 49.8684 30.3008 49.8684 31.1466V55.3947C49.8684 56.2406 49.0226 57.0865 48.1767 57.0865H25.3383C25.0564 57.0865 24.7744 57.3684 24.4925 57.3684L15.188 66.6729C14.906 66.9549 14.6241 66.9549 14.3421 66.9549C14.0602 66.9549 14.0602 66.9549 13.7782 66.6729C13.4962 66.6729 12.9323 66.109 12.9323 65.5451V57.9323C12.9323 57.0865 12.3684 56.8045 11.8045 56.8045H6.72932V57.0865Z" fill="#3B4E52"/>
<path d="M40 39.8872C40.5639 39.8872 41.1278 39.3233 41.1278 38.7594C41.1278 38.1955 40.5639 37.6315 39.718 37.6315H14.906C14.0602 37.6315 13.7782 38.1955 13.7782 38.7594C13.7782 39.3233 14.3421 39.8872 14.906 39.8872H40Z" fill="#3B4E52"/>
<path d="M40 49.1917C40.5639 49.1917 41.1278 48.6277 41.1278 48.0638C41.1278 47.4999 40.5639 46.936 39.718 46.936H14.906C14.0602 46.936 13.7782 47.4999 13.7782 48.0638C13.7782 48.6277 14.3421 49.1917 14.906 49.1917H40Z" fill="#3B4E52"/>
</svg>
