<svg xmlns="http://www.w3.org/2000/svg" shape-rendering="geometricPrecision" text-rendering="geometricPrecision" image-rendering="optimizeQuality" fill-rule="evenodd" clip-rule="evenodd" viewBox="0 0 512 435.24"><path fill-rule="nonzero" d="m128.87 409.09-.01-12.61-1-.37c-5.1-1.8-10.2-3.64-10.86-14.03l.65-331.46c.02-10.37 3.75-16.12 8.42-23.33 1.18-1.83 2.44-3.77 3.6-5.73.58-.99 1.42-1.73 2.38-2.19 5.42-5.79 18.74-10.43 37.46-13.49C191.74 2.25 222.33 0 256 0c33.66 0 64.26 2.25 86.48 5.88 23.5 3.84 38.51 10.16 40.01 18.14 1.13 1.63 2.21 3.07 3.18 4.4 5.55 7.51 8.66 11.7 8.68 24.31l.18 92.21c.4 1.06.48 2.25.17 3.42l-.17.54.46 233.18c-.65 10.39-5.75 12.23-10.85 14.05l-1 .35v12.61c0 .98-.25 1.91-.7 2.71-1.76 3.55-5.49 6.56-10.81 9.05-19.42 9.1-66.28 14.04-113.34 14.37-47.04.33-94.75-3.94-115.97-13.23-6.45-2.82-10.94-6.32-12.92-10.55-.35-.76-.52-1.57-.53-2.35zm-.3-268.84c41.18-10.36 84.56-15.58 127.95-15.64 42.98-.06 86 4.94 126.91 14.99l-.18-86.87c-.01-8.72-2.22-11.92-6.21-17.3-6.55 4.64-18.6 8.39-34.56 11-22.22 3.63-52.82 5.88-86.48 5.88-27.48 0-52.73-2.38-73.1-5.58-4.74-.58-9.21-1.21-13.39-1.89-15.9-2.6-27.91-6.34-34.48-10.95-3.52 5.43-6.27 9.9-6.28 16.73l-.18 89.63zm254.88 11.08c-40.85-10.3-83.91-15.41-126.93-15.35-43.4.06-86.82 5.41-127.97 16.02l-.45 229.39c.2 3.06 1.85 3.67 3.5 4.26 1.08.4 2.17.79 3.25 1.33.29.03.58.09.88.16 25.79 6.93 73.93 10.26 121.41 10.32 48.65.06 96.44-3.29 118.65-9.71 1.38-.89 2.79-1.43 4.19-1.93l.42-.17c1.65-.59 3.3-1.2 3.5-4.26l-.45-230.06zM267.5 248.17v19.7c0 16.91-23.62 16.91-23.62 0v-19.7c0-17.38 23.62-17.38 23.62 0zm-8.87 47.58v13.38a2.952 2.952 0 0 1-2.94 2.8c-1.56 0-2.86-1.24-2.93-2.8v-13.41c-2.7-.31-5.33-1.06-7.8-2.2a26.147 26.147 0 0 1-7.41-5.17l-.03-.06a25.951 25.951 0 0 1-5.56-8.28c-1.29-3.1-1.95-6.43-1.95-9.79v-.05a2.92 2.92 0 0 1 2.93-2.92c.78 0 1.53.31 2.08.87l.06.06c.51.54.79 1.26.79 2.01v.03c0 2.58.52 5.13 1.51 7.52 2.03 4.87 5.91 8.75 10.78 10.78a19.655 19.655 0 0 0 15.11 0c2.4-1 4.6-2.47 6.44-4.32l.05-.04c1.82-1.84 3.27-4.01 4.27-6.4.98-2.37 1.48-4.9 1.48-7.46v-.11c.07-1.57 1.36-2.8 2.93-2.8s2.86 1.23 2.94 2.8v.02c0 3.36-.67 6.68-1.96 9.77-1.3 3.13-3.2 5.97-5.59 8.37l-.06.05a26.248 26.248 0 0 1-7.35 5.12c-2.46 1.13-5.1 1.88-7.8 2.19l.01.04zm169.83 43.48c-2.43 2.74-6.62 3-9.36.57-2.75-2.43-3-6.62-.57-9.36 19.27-21.8 29.13-44.54 28.76-67.25-.37-22.08-10.47-44.49-31.03-66.32a6.648 6.648 0 0 1 .28-9.39 6.648 6.648 0 0 1 9.39.29c22.94 24.34 34.2 49.77 34.63 75.21.43 26.13-10.57 51.92-32.1 76.25zm41.49 31.23c-2.38 2.79-6.58 3.11-9.36.73-2.79-2.38-3.11-6.58-.73-9.37 25.87-30.19 39.16-64.14 38.86-98.32-.28-33.35-13.5-67.15-40.57-98.12-2.41-2.76-2.13-6.96.63-9.37 2.75-2.41 6.95-2.13 9.36.63 29.25 33.48 43.55 70.25 43.85 106.75.33 37.44-14.05 74.41-42.04 107.07zM93.47 330.44a6.621 6.621 0 0 1-.57 9.36c-2.74 2.43-6.93 2.17-9.36-.57-21.53-24.33-32.53-50.12-32.1-76.25.43-25.44 11.69-50.87 34.63-75.21a6.648 6.648 0 0 1 9.39-.29 6.648 6.648 0 0 1 .28 9.39c-20.56 21.83-30.66 44.24-31.03 66.32-.37 22.71 9.49 45.45 28.76 67.25zm-41.33 31.38c2.38 2.79 2.06 6.99-.73 9.37-2.78 2.38-6.98 2.06-9.36-.73C14.06 337.8-.32 300.83.01 263.39c.3-36.5 14.6-73.27 43.85-106.75 2.41-2.76 6.61-3.04 9.36-.63 2.76 2.41 3.04 6.61.63 9.37-27.07 30.97-40.29 64.77-40.57 98.12-.3 34.18 12.99 68.13 38.86 98.32zM372 400.17c-25.12 5.55-69.73 8.44-114.86 8.38-44.34-.05-89.39-2.95-117.14-8.95v7.97c1.12 1.37 3.45 2.79 6.76 4.24 19.8 8.66 65.77 12.63 111.48 12.31 45.68-.31 90.71-4.9 108.69-13.32 2.48-1.16 4.22-2.25 5.07-3.22v-7.41zM141.89 26.84c4.56 1.79 19.26 5.09 40.43 8.54l2.11.34c19.91 2.42 44.67 3.86 71.57 3.86 33.18 0 63.12-2.19 84.7-5.71 17-2.78 28.21-5.54 30.39-7.75a5.45 5.45 0 0 1-.04-1.56c-2.28-2.21-13.45-4.95-30.35-7.71-21.58-3.53-51.52-5.71-84.7-5.71s-63.13 2.18-84.71 5.71c-19.01 3.1-30.78 6.19-30.78 8.51 0 .46.48.96 1.38 1.48zm3.13 336.14c3.87 0 7 3.13 7 7s-3.13 7-7 7-7.01-3.13-7.01-7 3.14-7 7.01-7zm221.96-198.7c3.87 0 7 3.14 7 7 0 3.87-3.13 7.01-7 7.01s-7-3.14-7-7.01c0-3.86 3.13-7 7-7zm-31.71 0c3.87 0 7.01 3.14 7.01 7 0 3.87-3.14 7.01-7.01 7.01-3.87 0-7-3.14-7-7.01 0-3.86 3.13-7 7-7zm-31.71 0c3.87 0 7 3.14 7 7 0 3.87-3.13 7.01-7 7.01s-7-3.14-7-7.01c0-3.86 3.13-7 7-7zm-31.71 0c3.87 0 7 3.14 7 7 0 3.87-3.13 7.01-7 7.01s-7-3.14-7-7.01c0-3.86 3.13-7 7-7zm-31.7 0c3.86 0 6.99 3.14 6.99 7 0 3.87-3.13 7.01-6.99 7.01-3.87 0-7.01-3.14-7.01-7.01 0-3.86 3.14-7 7.01-7zm-31.71 0c3.86 0 6.99 3.14 6.99 7 0 3.87-3.13 7.01-6.99 7.01-3.87 0-7.01-3.14-7.01-7.01 0-3.86 3.14-7 7.01-7zm-31.71 0c3.86 0 7 3.14 7 7 0 3.87-3.14 7.01-7 7.01-3.87 0-7.01-3.14-7.01-7.01 0-3.86 3.14-7 7.01-7zm-31.71 0c3.87 0 7 3.14 7 7 0 3.87-3.13 7.01-7 7.01s-7.01-3.14-7.01-7.01c0-3.86 3.14-7 7.01-7zm221.96 33.12c3.87 0 7 3.13 7 7s-3.13 7-7 7-7-3.13-7-7 3.13-7 7-7zm-31.71 0c3.87 0 7.01 3.13 7.01 7s-3.14 7-7.01 7c-3.87 0-7-3.13-7-7s3.13-7 7-7zm-31.71 0c3.87 0 7 3.13 7 7s-3.13 7-7 7-7-3.13-7-7 3.13-7 7-7zm-31.71 0c3.87 0 7 3.13 7 7s-3.13 7-7 7-7-3.13-7-7 3.13-7 7-7zm-31.7 0c3.86 0 6.99 3.13 6.99 7s-3.13 7-6.99 7c-3.87 0-7.01-3.13-7.01-7s3.14-7 7.01-7zm-31.71 0c3.86 0 6.99 3.13 6.99 7s-3.13 7-6.99 7c-3.87 0-7.01-3.13-7.01-7s3.14-7 7.01-7zm-31.71 0c3.86 0 7 3.13 7 7s-3.14 7-7 7c-3.87 0-7.01-3.13-7.01-7s3.14-7 7.01-7zm-31.71 0c3.87 0 7 3.13 7 7s-3.13 7-7 7-7.01-3.13-7.01-7 3.14-7 7.01-7zm221.96 33.11c3.87 0 7 3.14 7 7 0 3.87-3.13 7.01-7 7.01s-7-3.14-7-7.01c0-3.86 3.13-7 7-7zm-31.71 0c3.87 0 7.01 3.14 7.01 7 0 3.87-3.14 7.01-7.01 7.01-3.87 0-7-3.14-7-7.01 0-3.86 3.13-7 7-7zm-31.71 0c3.87 0 7 3.14 7 7 0 3.87-3.13 7.01-7 7.01s-7-3.14-7-7.01c0-3.86 3.13-7 7-7zm-95.12 0c3.86 0 6.99 3.14 6.99 7 0 3.87-3.13 7.01-6.99 7.01-3.87 0-7.01-3.14-7.01-7.01 0-3.86 3.14-7 7.01-7zm-31.71 0c3.86 0 7 3.14 7 7 0 3.87-3.14 7.01-7 7.01-3.87 0-7.01-3.14-7.01-7.01 0-3.86 3.14-7 7.01-7zm-31.71 0c3.87 0 7 3.14 7 7 0 3.87-3.13 7.01-7 7.01s-7.01-3.14-7.01-7.01c0-3.86 3.14-7 7.01-7zm221.96 33.12c3.87 0 7 3.13 7 7.01 0 3.86-3.13 6.99-7 6.99s-7-3.13-7-6.99c0-3.88 3.13-7.01 7-7.01zm-31.71 0c3.87 0 7.01 3.13 7.01 7.01 0 3.86-3.14 6.99-7.01 6.99-3.87 0-7-3.13-7-6.99 0-3.88 3.13-7.01 7-7.01zm-158.54 0c3.86 0 7 3.13 7 7.01 0 3.86-3.14 6.99-7 6.99-3.87 0-7.01-3.13-7.01-6.99 0-3.88 3.14-7.01 7.01-7.01zm-31.71 0c3.87 0 7 3.13 7 7.01 0 3.86-3.13 6.99-7 6.99s-7.01-3.13-7.01-6.99c0-3.88 3.14-7.01 7.01-7.01zm221.96 33.11c3.87 0 7 3.14 7 7.01 0 3.87-3.13 7.01-7 7.01s-7-3.14-7-7.01c0-3.87 3.13-7.01 7-7.01zm-31.71 0c3.87 0 7.01 3.14 7.01 7.01 0 3.87-3.14 7.01-7.01 7.01-3.87 0-7-3.14-7-7.01 0-3.87 3.13-7.01 7-7.01zm-31.71 0c3.87 0 7 3.14 7 7.01 0 3.87-3.13 7.01-7 7.01s-7-3.14-7-7.01c0-3.87 3.13-7.01 7-7.01zm-95.12 0c3.86 0 6.99 3.14 6.99 7.01 0 3.87-3.13 7.01-6.99 7.01-3.87 0-7.01-3.14-7.01-7.01 0-3.87 3.14-7.01 7.01-7.01zm-31.71 0c3.86 0 7 3.14 7 7.01 0 3.87-3.14 7.01-7 7.01-3.87 0-7.01-3.14-7.01-7.01 0-3.87 3.14-7.01 7.01-7.01zm-31.71 0c3.87 0 7 3.14 7 7.01 0 3.87-3.13 7.01-7 7.01s-7.01-3.14-7.01-7.01c0-3.87 3.14-7.01 7.01-7.01zm221.96 33.12c3.87 0 7 3.13 7 7s-3.13 7.01-7 7.01-7-3.14-7-7.01c0-3.87 3.13-7 7-7zm-31.71 0c3.87 0 7.01 3.13 7.01 7s-3.14 7.01-7.01 7.01c-3.87 0-7-3.14-7-7.01 0-3.87 3.13-7 7-7zm-31.71 0c3.87 0 7 3.13 7 7s-3.13 7.01-7 7.01-7-3.14-7-7.01c0-3.87 3.13-7 7-7zm-31.71 0c3.87 0 7 3.13 7 7s-3.13 7.01-7 7.01-7-3.14-7-7.01c0-3.87 3.13-7 7-7zm-31.7 0c3.86 0 6.99 3.13 6.99 7s-3.13 7.01-6.99 7.01c-3.87 0-7.01-3.14-7.01-7.01 0-3.87 3.14-7 7.01-7zm-31.71 0c3.86 0 6.99 3.13 6.99 7s-3.13 7.01-6.99 7.01c-3.87 0-7.01-3.14-7.01-7.01 0-3.87 3.14-7 7.01-7zm-31.71 0c3.86 0 7 3.13 7 7s-3.14 7.01-7 7.01c-3.87 0-7.01-3.14-7.01-7.01 0-3.87 3.14-7 7.01-7zm-31.71 0c3.87 0 7 3.13 7 7s-3.13 7.01-7 7.01-7.01-3.14-7.01-7.01c0-3.87 3.14-7 7.01-7zm221.96 33.12c3.87 0 7 3.13 7 7s-3.13 7-7 7-7-3.13-7-7 3.13-7 7-7zm-31.71 0c3.87 0 7.01 3.13 7.01 7s-3.14 7-7.01 7c-3.87 0-7-3.13-7-7s3.13-7 7-7zm-31.71 0c3.87 0 7 3.13 7 7s-3.13 7-7 7-7-3.13-7-7 3.13-7 7-7zm-31.71 0c3.87 0 7 3.13 7 7s-3.13 7-7 7-7-3.13-7-7 3.13-7 7-7zm-31.7 0c3.86 0 6.99 3.13 6.99 7s-3.13 7-6.99 7c-3.87 0-7.01-3.13-7.01-7s3.14-7 7.01-7zm-31.71 0c3.86 0 6.99 3.13 6.99 7s-3.13 7-6.99 7c-3.87 0-7.01-3.13-7.01-7s3.14-7 7.01-7zm-31.71 0c3.86 0 7 3.13 7 7s-3.14 7-7 7c-3.87 0-7.01-3.13-7.01-7s3.14-7 7.01-7z"/></svg>